<svg viewBox="0 0 378 237" xmlns="http://www.w3.org/2000/svg" xmlns:xlink="http://www.w3.org/1999/xlink" width="378.000000" height="237.000000" fill="none" customFrame="url(#clipPath_0)">
	<defs>
		<clipPath id="clipPath_0">
			<rect width="378.000000" height="237.000000" x="0.000000" y="0.000000" rx="30.000000" fill="rgb(255,255,255)" />
		</clipPath>
		<clipPath id="clipPath_1">
			<rect width="314.000000" height="169.000000" x="32.000000" y="32.000000" fill="rgb(255,255,255)" />
		</clipPath>
		<clipPath id="clipPath_2">
			<rect width="108.000000" height="36.000000" x="32.000000" y="32.000000" rx="18.000000" fill="rgb(255,255,255)" />
		</clipPath>
	</defs>
	<rect id="Frame 2043683124" width="378.000000" height="237.000000" x="0.000000" y="0.000000" rx="30.000000" />
	<g id="Frame 2043683135" customFrame="url(#clipPath_1)">
		<rect id="Frame 2043683135" width="314.000000" height="169.000000" x="32.000000" y="32.000000" />
		<g id="Frame 2043683020" customFrame="url(#clipPath_2)">
			<rect id="Frame 2043683020" width="108.000000" height="36.000000" x="32.000000" y="32.000000" rx="18.000000" fill="rgb(247,247,247)" />
			<path id="Игра №4" d="M49.744 43.536L51.328 43.536L51.328 52.176L57.952 43.536L59.424 43.536L59.424 54.736L57.856 54.736L57.856 46.112L51.216 54.736L49.744 54.736L49.744 43.536ZM68.8999 47.6L64.1959 47.6L64.1959 54.736L62.6599 54.736L62.6599 46.256L68.8999 46.256L68.8999 47.6ZM74.9684 46.176C75.7897 46.176 76.5257 46.3573 77.1764 46.72C77.827 47.0827 78.3337 47.5893 78.6964 48.24C79.0697 48.8907 79.2564 49.6427 79.2564 50.496C79.2564 51.3493 79.0697 52.1067 78.6964 52.768C78.3337 53.4187 77.827 53.9253 77.1764 54.288C76.5257 54.6507 75.7897 54.832 74.9684 54.832C74.3604 54.832 73.8004 54.7147 73.2884 54.48C72.787 54.2453 72.3604 53.904 72.0084 53.456L72.0084 57.84L70.4724 57.84L70.4724 46.256L71.9444 46.256L71.9444 47.6C72.2857 47.1307 72.7177 46.7787 73.2404 46.544C73.763 46.2987 74.339 46.176 74.9684 46.176ZM74.8404 53.488C75.3844 53.488 75.8697 53.3653 76.2964 53.12C76.7337 52.864 77.075 52.512 77.3204 52.064C77.5764 51.6053 77.7044 51.0827 77.7044 50.496C77.7044 49.9093 77.5764 49.392 77.3204 48.944C77.075 48.4853 76.7337 48.1333 76.2964 47.888C75.8697 47.6427 75.3844 47.52 74.8404 47.52C74.307 47.52 73.8217 47.648 73.3844 47.904C72.9577 48.1493 72.6164 48.496 72.3604 48.944C72.115 49.392 71.9924 49.9093 71.9924 50.496C71.9924 51.0827 72.115 51.6053 72.3604 52.064C72.6057 52.512 72.947 52.864 73.3844 53.12C73.8217 53.3653 74.307 53.488 74.8404 53.488ZM84.4339 46.176C85.6072 46.176 86.5032 46.464 87.1219 47.04C87.7512 47.616 88.0659 48.4747 88.0659 49.616L88.0659 54.736L86.6099 54.736L86.6099 53.616C86.3539 54.0107 85.9859 54.3147 85.5059 54.528C85.0365 54.7307 84.4765 54.832 83.8259 54.832C82.8765 54.832 82.1139 54.6027 81.5379 54.144C80.9725 53.6853 80.6899 53.0827 80.6899 52.336C80.6899 51.5893 80.9619 50.992 81.5059 50.544C82.0499 50.0853 82.9139 49.856 84.0979 49.856L86.5299 49.856L86.5299 49.552C86.5299 48.8907 86.3379 48.384 85.9539 48.032C85.5699 47.68 85.0045 47.504 84.2579 47.504C83.7565 47.504 83.2659 47.5893 82.7859 47.76C82.3059 47.92 81.9005 48.1387 81.5699 48.416L80.9299 47.264C81.3672 46.912 81.8899 46.6453 82.4979 46.464C83.1059 46.272 83.7512 46.176 84.4339 46.176ZM84.0819 53.648C84.6685 53.648 85.1752 53.52 85.6019 53.264C86.0285 52.9973 86.3379 52.624 86.5299 52.144L86.5299 50.96L84.1619 50.96C82.8605 50.96 82.2099 51.3973 82.2099 52.272C82.2099 52.6987 82.3752 53.0347 82.7059 53.28C83.0365 53.5253 83.4952 53.648 84.0819 53.648ZM109.257 48.608C108.713 48.608 108.222 48.496 107.785 48.272C107.358 48.048 107.022 47.7387 106.777 47.344C106.531 46.9493 106.409 46.5067 106.409 46.016C106.409 45.5253 106.531 45.0827 106.777 44.688C107.022 44.2933 107.358 43.9893 107.785 43.776C108.222 43.552 108.713 43.44 109.257 43.44C109.801 43.44 110.286 43.552 110.713 43.776C111.15 43.9893 111.486 44.2933 111.721 44.688C111.966 45.0827 112.089 45.5253 112.089 46.016C112.089 46.5067 111.966 46.9493 111.721 47.344C111.486 47.7387 111.15 48.048 110.713 48.272C110.286 48.496 109.801 48.608 109.257 48.608ZM103.353 43.536L104.953 43.536L104.953 54.736L103.641 54.736L96.9206 46.384L96.9206 54.736L95.3206 54.736L95.3206 43.536L96.6326 43.536L103.353 51.888L103.353 43.536ZM109.257 44.352C108.723 44.352 108.291 44.5067 107.961 44.816C107.641 45.1253 107.481 45.5253 107.481 46.016C107.481 46.5067 107.646 46.9067 107.977 47.216C108.307 47.5253 108.734 47.68 109.257 47.68C109.779 47.68 110.201 47.5253 110.521 47.216C110.851 46.9067 111.017 46.5067 111.017 46.016C111.017 45.5253 110.851 45.1253 110.521 44.816C110.201 44.5067 109.779 44.352 109.257 44.352ZM106.729 49.872L111.785 49.872L111.785 50.912L106.729 50.912L106.729 49.872ZM123.215 51.984L121.087 51.984L121.087 54.736L119.535 54.736L119.535 51.984L113.311 51.984L113.311 50.864L119.039 43.536L120.767 43.536L115.279 50.608L119.583 50.608L119.583 48.176L121.087 48.176L121.087 50.608L123.215 50.608L123.215 51.984Z" fill="rgb(39,26,88)" fill-rule="nonzero" />
		</g>
		<path id="Камень, ножницы,  бумага" d="M43.456 105.948L39.872 105.948L39.872 114.972L34.72 114.972L34.72 92.572L39.872 92.572L39.872 101.628L43.584 101.628L49.472 92.572L54.944 92.572L47.616 103.388L55.168 114.972L49.28 114.972L43.456 105.948ZM64.0567 97.5C66.7234 97.5 68.7714 98.14 70.2008 99.42C71.6301 100.679 72.3447 102.588 72.3447 105.148L72.3447 114.972L67.6728 114.972L67.6728 112.828C66.7341 114.428 64.9847 115.228 62.4248 115.228C61.1021 115.228 59.9501 115.004 58.9688 114.556C58.0088 114.108 57.2728 113.489 56.7607 112.7C56.2487 111.911 55.9928 111.015 55.9928 110.012C55.9928 108.412 56.5901 107.153 57.7848 106.236C59.0008 105.319 60.8674 104.86 63.3848 104.86L67.3528 104.86C67.3528 103.772 67.0221 102.94 66.3607 102.364C65.6994 101.767 64.7074 101.468 63.3848 101.468C62.4674 101.468 61.5608 101.617 60.6647 101.916C59.7901 102.193 59.0434 102.577 58.4248 103.068L56.6328 99.58C57.5714 98.9187 58.6914 98.4067 59.9928 98.044C61.3154 97.6813 62.6701 97.5 64.0567 97.5ZM63.6728 111.868C64.5261 111.868 65.2834 111.676 65.9447 111.292C66.6061 110.887 67.0754 110.3 67.3528 109.532L67.3528 107.772L63.9287 107.772C61.8808 107.772 60.8568 108.444 60.8568 109.788C60.8568 110.428 61.1021 110.94 61.5928 111.324C62.1048 111.687 62.7981 111.868 63.6728 111.868ZM93.4812 114.972L93.4812 104.668L88.3293 113.308L86.2173 113.308L81.1933 104.636L81.1933 114.972L76.6813 114.972L76.6813 97.756L81.8972 97.756L87.4013 107.708L93.2572 97.756L97.9293 97.756L97.9933 114.972L93.4812 114.972ZM119.511 106.428C119.511 106.492 119.479 106.94 119.415 107.772L106.391 107.772C106.626 108.839 107.18 109.681 108.055 110.3C108.93 110.919 110.018 111.228 111.319 111.228C112.215 111.228 113.004 111.1 113.687 110.844C114.391 110.567 115.042 110.14 115.639 109.564L118.295 112.444C116.674 114.3 114.306 115.228 111.191 115.228C109.25 115.228 107.532 114.855 106.039 114.108C104.546 113.34 103.394 112.284 102.583 110.94C101.772 109.596 101.367 108.071 101.367 106.364C101.367 104.679 101.762 103.164 102.551 101.82C103.362 100.455 104.46 99.3987 105.847 98.652C107.255 97.884 108.823 97.5 110.551 97.5C112.236 97.5 113.762 97.8627 115.127 98.588C116.492 99.3133 117.559 100.359 118.327 101.724C119.116 103.068 119.511 104.636 119.511 106.428ZM110.583 101.276C109.452 101.276 108.503 101.596 107.735 102.236C106.967 102.876 106.498 103.751 106.327 104.86L114.807 104.86C114.636 103.772 114.167 102.908 113.399 102.268C112.631 101.607 111.692 101.276 110.583 101.276ZM123.338 97.756L128.298 97.756L128.298 104.476L135.785 104.476L135.785 97.756L140.777 97.756L140.777 114.972L135.785 114.972L135.785 108.54L128.298 108.54L128.298 114.972L123.338 114.972L123.338 97.756ZM154.868 103.26C157.108 103.281 158.826 103.793 160.02 104.796C161.215 105.777 161.812 107.175 161.812 108.988C161.812 110.887 161.14 112.369 159.796 113.436C158.474 114.481 156.607 115.004 154.196 115.004L145.556 114.972L145.556 97.756L150.516 97.756L150.516 103.26L154.868 103.26ZM153.748 111.452C154.708 111.473 155.444 111.271 155.956 110.844C156.468 110.417 156.724 109.777 156.724 108.924C156.724 108.092 156.468 107.484 155.956 107.1C155.466 106.716 154.73 106.513 153.748 106.492L150.516 106.46L150.516 111.452L153.748 111.452ZM166.63 109.02C167.526 109.02 168.262 109.308 168.838 109.884C169.414 110.439 169.702 111.175 169.702 112.092C169.702 112.519 169.649 112.945 169.542 113.372C169.436 113.799 169.201 114.439 168.838 115.292L167.014 119.9L163.846 119.9L165.254 114.812C164.721 114.599 164.294 114.257 163.974 113.788C163.676 113.297 163.526 112.732 163.526 112.092C163.526 111.175 163.814 110.439 164.39 109.884C164.988 109.308 165.734 109.02 166.63 109.02ZM34.4 136.756L39.36 136.756L39.36 143.476L46.848 143.476L46.848 136.756L51.84 136.756L51.84 153.972L46.848 153.972L46.848 147.54L39.36 147.54L39.36 153.972L34.4 153.972L34.4 136.756ZM64.6828 154.228C62.8694 154.228 61.2374 153.855 59.7868 153.108C58.3574 152.34 57.2374 151.284 56.4268 149.94C55.6161 148.596 55.2108 147.071 55.2108 145.364C55.2108 143.657 55.6161 142.132 56.4268 140.788C57.2374 139.444 58.3574 138.399 59.7868 137.652C61.2374 136.884 62.8694 136.5 64.6828 136.5C66.4961 136.5 68.1174 136.884 69.5468 137.652C70.9761 138.399 72.0961 139.444 72.9068 140.788C73.7174 142.132 74.1227 143.657 74.1227 145.364C74.1227 147.071 73.7174 148.596 72.9068 149.94C72.0961 151.284 70.9761 152.34 69.5468 153.108C68.1174 153.855 66.4961 154.228 64.6828 154.228ZM64.6828 150.132C65.9628 150.132 67.0081 149.705 67.8187 148.852C68.6507 147.977 69.0667 146.815 69.0667 145.364C69.0667 143.913 68.6507 142.761 67.8187 141.908C67.0081 141.033 65.9628 140.596 64.6828 140.596C63.4028 140.596 62.3467 141.033 61.5148 141.908C60.6828 142.761 60.2668 143.913 60.2668 145.364C60.2668 146.815 60.6828 147.977 61.5148 148.852C62.3467 149.705 63.4028 150.132 64.6828 150.132ZM94.081 147.444L91.681 147.444L91.681 153.972L86.753 153.972L86.753 147.444L84.353 147.444L80.705 153.972L74.817 153.972L80.225 145.076L75.201 136.756L80.481 136.756L84.289 143.444L86.753 143.444L86.753 136.756L91.681 136.756L91.681 143.444L94.113 143.444L97.953 136.756L103.233 136.756L98.209 145.076L103.649 153.972L97.729 153.972L94.081 147.444ZM106.244 136.756L111.204 136.756L111.204 143.476L118.692 143.476L118.692 136.756L123.684 136.756L123.684 153.972L118.692 153.972L118.692 147.54L111.204 147.54L111.204 153.972L106.244 153.972L106.244 136.756ZM128.462 136.756L133.423 136.756L133.423 146.996L141.807 136.756L146.383 136.756L146.383 153.972L141.423 153.972L141.423 143.732L133.07 153.972L128.462 153.972L128.462 136.756ZM170.573 149.876L170.573 157.748L165.933 157.748L165.933 153.972L151.181 153.972L151.181 136.756L156.141 136.756L156.141 149.876L163.085 149.876L163.085 136.756L168.077 136.756L168.077 149.876L170.573 149.876ZM182.768 142.26C185.008 142.281 186.704 142.783 187.857 143.764C189.008 144.745 189.585 146.153 189.585 147.988C189.585 149.908 188.934 151.391 187.633 152.436C186.331 153.481 184.486 154.004 182.096 154.004L173.712 153.972L173.712 136.756L178.673 136.756L178.673 142.26L182.768 142.26ZM191.441 136.756L196.4 136.756L196.4 153.972L191.441 153.972L191.441 136.756ZM181.648 150.452C182.609 150.473 183.344 150.271 183.857 149.844C184.368 149.417 184.624 148.777 184.624 147.924C184.624 147.092 184.368 146.484 183.857 146.1C183.366 145.716 182.63 145.513 181.648 145.492L178.673 145.46L178.673 150.452L181.648 150.452ZM203.036 148.02C203.932 148.02 204.669 148.308 205.245 148.884C205.82 149.439 206.109 150.175 206.109 151.092C206.109 151.519 206.055 151.945 205.949 152.372C205.842 152.799 205.607 153.439 205.245 154.292L203.421 158.9L200.253 158.9L201.661 153.812C201.127 153.599 200.701 153.257 200.38 152.788C200.082 152.297 199.932 151.732 199.932 151.092C199.932 150.175 200.221 149.439 200.796 148.884C201.394 148.308 202.141 148.02 203.036 148.02ZM44.352 176.94C45.9947 176.94 47.4347 177.281 48.672 177.964C49.9093 178.625 50.8587 179.564 51.52 180.78C52.2027 181.996 52.544 183.404 52.544 185.004C52.544 186.647 52.1387 188.108 51.328 189.388C50.5387 190.647 49.4293 191.628 48 192.332C46.5707 193.015 44.9493 193.356 43.136 193.356C40.128 193.356 37.76 192.396 36.032 190.476C34.3253 188.535 33.472 185.697 33.472 181.964C33.472 178.508 34.2187 175.756 35.712 173.708C37.2267 171.639 39.5413 170.284 42.656 169.644L50.848 168.012L51.52 172.3L44.288 173.74C42.3253 174.124 40.864 174.764 39.904 175.66C38.9653 176.556 38.4107 177.825 38.24 179.468C38.9867 178.657 39.8827 178.039 40.928 177.612C41.9733 177.164 43.1147 176.94 44.352 176.94ZM43.168 189.484C44.448 189.484 45.472 189.068 46.24 188.236C47.0293 187.404 47.424 186.348 47.424 185.068C47.424 183.767 47.0293 182.732 46.24 181.964C45.472 181.196 44.448 180.812 43.168 180.812C41.8667 180.812 40.8213 181.196 40.032 181.964C39.2427 182.732 38.848 183.767 38.848 185.068C38.848 186.369 39.2533 187.436 40.064 188.268C40.8747 189.079 41.9093 189.484 43.168 189.484ZM72.7105 175.756L64.9345 194.028C64.1452 196.012 63.1638 197.409 61.9905 198.22C60.8385 199.031 59.4412 199.436 57.7985 199.436C56.9025 199.436 56.0172 199.297 55.1425 199.02C54.2678 198.743 53.5532 198.359 52.9985 197.868L54.8225 194.316C55.2065 194.657 55.6438 194.924 56.1345 195.116C56.6465 195.308 57.1478 195.404 57.6385 195.404C58.3212 195.404 58.8758 195.233 59.3025 194.892C59.7292 194.572 60.1132 194.028 60.4545 193.26L60.5185 193.1L53.0625 175.756L58.2145 175.756L63.0465 187.436L67.9105 175.756L72.7105 175.756ZM91.9187 192.972L91.9187 182.668L86.7668 191.308L84.6548 191.308L79.6308 182.636L79.6308 192.972L75.1188 192.972L75.1188 175.756L80.3347 175.756L85.8388 185.708L91.6947 175.756L96.3668 175.756L96.4308 192.972L91.9187 192.972ZM107.9 175.5C110.567 175.5 112.615 176.14 114.045 177.42C115.474 178.679 116.188 180.588 116.188 183.148L116.188 192.972L111.517 192.972L111.517 190.828C110.578 192.428 108.828 193.228 106.269 193.228C104.946 193.228 103.794 193.004 102.812 192.556C101.853 192.108 101.117 191.489 100.604 190.7C100.092 189.911 99.8365 189.015 99.8365 188.012C99.8365 186.412 100.434 185.153 101.629 184.236C102.844 183.319 104.711 182.86 107.229 182.86L111.197 182.86C111.197 181.772 110.866 180.94 110.204 180.364C109.543 179.767 108.551 179.468 107.229 179.468C106.311 179.468 105.405 179.617 104.508 179.916C103.634 180.193 102.887 180.577 102.269 181.068L100.477 177.58C101.415 176.919 102.535 176.407 103.837 176.044C105.159 175.681 106.514 175.5 107.9 175.5ZM107.517 189.868C108.37 189.868 109.127 189.676 109.788 189.292C110.45 188.887 110.919 188.3 111.197 187.532L111.197 185.772L107.772 185.772C105.725 185.772 104.701 186.444 104.701 187.788C104.701 188.428 104.946 188.94 105.437 189.324C105.949 189.687 106.642 189.868 107.517 189.868ZM134.317 179.852L125.485 179.852L125.485 192.972L120.525 192.972L120.525 175.756L134.317 175.756L134.317 179.852ZM143.65 175.5C146.317 175.5 148.365 176.14 149.794 177.42C151.224 178.679 151.939 180.588 151.939 183.148L151.939 192.972L147.267 192.972L147.267 190.828C146.328 192.428 144.578 193.228 142.018 193.228C140.696 193.228 139.544 193.004 138.562 192.556C137.603 192.108 136.867 191.489 136.354 190.7C135.842 189.911 135.587 189.015 135.587 188.012C135.587 186.412 136.184 185.153 137.379 184.236C138.594 183.319 140.461 182.86 142.979 182.86L146.947 182.86C146.947 181.772 146.616 180.94 145.954 180.364C145.293 179.767 144.301 179.468 142.979 179.468C142.061 179.468 141.155 179.617 140.258 179.916C139.384 180.193 138.637 180.577 138.018 181.068L136.227 177.58C137.165 176.919 138.285 176.407 139.587 176.044C140.909 175.681 142.264 175.5 143.65 175.5ZM143.267 189.868C144.12 189.868 144.877 189.676 145.538 189.292C146.2 188.887 146.669 188.3 146.947 187.532L146.947 185.772L143.522 185.772C141.475 185.772 140.451 186.444 140.451 187.788C140.451 188.428 140.696 188.94 141.186 189.324C141.699 189.687 142.392 189.868 143.267 189.868Z" fill="rgb(32,32,39)" fill-rule="nonzero" />
	</g>
</svg>
