<svg viewBox="0 0 273.913 273.612" xmlns="http://www.w3.org/2000/svg" xmlns:xlink="http://www.w3.org/1999/xlink" width="273.913086" height="273.612427" fill="none" customFrame="#000000">
	<defs>
		<g id="pixso_custom_effect_0">
			<effect x="0.000000" y="18.922712" visibility="visible" fill="rgb(0,0,0)" fill-opacity="0.300000012" effectType="dropShadow" stdDeviation="63.3911018" radius="-11.3536282" />
		</g>
		<filter id="filter_0" width="273.913086" height="273.612427" x="0.000000" y="0.000000" filterUnits="userSpaceOnUse" customEffect="url(#pixso_custom_effect_0)" color-interpolation-filters="sRGB">
			<feFlood flood-opacity="0" result="BackgroundImageFix" />
			<feOffset dx="4310.450195" dy="1306.888916" in="SourceAlpha" />
			<feMorphology radius="-11.3536282" operator="dilate" />
			<feOffset dx="-4310.450195" dy="-1287.966187" />
			<feGaussianBlur stdDeviation="21.1303673" />
			<feColorMatrix type="matrix" values="0 0 0 0 0 0 0 0 0 0 0 0 0 0 0 0 0 0 0.3 0 " />
			<feBlend result="effect_dropShadow_1" in2="BackgroundImageFix" mode="normal" />
			<feBlend result="shape" in="SourceGraphic" in2="effect_dropShadow_1" mode="normal" />
		</filter>
		<clipPath id="clipPath_0">
			<rect width="151.761551" height="151.529739" x="0.000000" y="0.000000" rx="19.025000" fill="rgb(255,255,255)" transform="matrix(0.984808,0.173648,-0.174411,0.984673,75.4429,30.1033)" />
		</clipPath>
	</defs>
	<g filter="url(#filter_0)" customFrame="url(#clipPath_0)">
		<rect id="Frame 2043683065" width="151.761551" height="151.529739" x="0.000000" y="0.000000" rx="19.025000" fill="rgb(232.532,211.707,255)" transform="matrix(0.984808,0.173648,-0.174411,0.984673,75.4429,30.1033)" />
		<rect id="Frame 2043683065" width="151.261551" height="151.029739" x="0.250000" y="0.250000" rx="19.025000" stroke="rgb(32,32,39)" stroke-width="0.5" transform="matrix(0.984808,0.173648,-0.174411,0.984673,75.4429,30.1033)" />
		<path id="?" d="M17.4915 52.9014C17.4915 50.1957 18.0868 47.9769 19.2773 46.2452C20.4679 44.4594 22.1996 42.5113 24.4724 40.4007C26.0418 38.9396 27.2052 37.722 27.9629 36.7479C28.7205 35.7197 29.0993 34.6374 29.0993 33.501C29.0993 31.9317 28.4229 30.687 27.07 29.767C25.7712 28.793 24.0665 28.3059 21.956 28.3059C19.7914 28.3059 17.8162 28.82 16.0304 29.8482C14.2987 30.8764 12.8917 32.3105 11.8094 34.1504L-0.285453 27.6565C1.93329 23.8684 5.07199 20.9191 9.13065 18.8086C13.1893 16.6981 18.0868 15.6429 23.823 15.6429C30.2628 15.6429 35.4308 16.9958 39.3271 19.7015C43.2776 22.3532 45.2528 26.0872 45.2528 30.9035C45.2528 33.1222 44.874 35.0974 44.1164 36.8291C43.3587 38.5067 42.4388 39.9408 41.3565 41.1313C40.3283 42.2677 38.9754 43.5665 37.2978 45.0276C35.4579 46.597 34.105 47.9499 33.2391 49.0863C32.3733 50.1686 31.9404 51.4403 31.9404 52.9014L17.4915 52.9014ZM24.7159 74.3312C22.0643 74.3312 19.8726 73.5195 18.1409 71.896C16.4092 70.2184 15.5433 68.1891 15.5433 65.808C15.5433 63.3728 16.3821 61.3705 18.0597 59.8012C19.7914 58.2318 22.0102 57.4471 24.7159 57.4471C27.4217 57.4471 29.6404 58.2318 31.3721 59.8012C33.1038 61.3705 33.9697 63.3728 33.9697 65.808C33.9697 68.1891 33.1038 70.2184 31.3721 71.896C29.6404 73.5195 27.4217 74.3312 24.7159 74.3312Z" fill="rgb(255,255,255)" fill-rule="nonzero" transform="matrix(0.984808,0.173648,-0.174411,0.984673,120.59,69.8112)" />
		<path id="?" d="M18.7547 45.886Q16.8573 48.6458 16.8573 52.9014L16.8573 53.5356L32.5745 53.5356L32.5745 52.9014Q32.5745 51.6541 33.0398 50.6152Q33.3091 50.0139 33.7343 49.4825L33.7391 49.4765L33.7436 49.4706Q35.0012 47.8201 37.7143 45.5058Q40.2591 43.2894 41.8257 41.5579Q43.5166 39.6979 44.6974 37.0833Q45.8869 34.3642 45.887 30.9035Q45.8869 27.1339 44.3319 24.1942Q44.2439 24.0278 44.1509 23.8641Q42.6012 21.1354 39.6889 19.1807Q33.6812 15.0087 23.823 15.0087Q15.0636 15.0087 8.83808 18.246Q4.90069 20.2934 2.08627 23.3686Q0.433065 25.175 -0.832665 27.336L-1.16529 27.9039L12.0467 34.9976L12.356 34.4719Q13.5203 32.4926 15.2038 31.1783Q15.7481 30.7533 16.3468 30.3978Q17.124 29.9503 17.9525 29.6402Q19.8233 28.9401 21.956 28.9401Q24.9104 28.9401 26.6895 30.2744L26.7012 30.2832L26.7134 30.2914Q27.6009 30.895 28.0348 31.6933Q28.0492 31.7198 28.0631 31.7466Q28.4651 32.5192 28.4651 33.501Q28.4651 33.7629 28.4341 34.021Q28.2883 35.2343 27.4572 36.3652Q26.3517 37.7846 24.0409 39.936Q20.5769 43.1526 18.7547 45.886ZM27.9629 36.7479C27.2052 37.722 26.0418 38.9396 24.4724 40.4007Q21.0631 43.5665 19.2773 46.2452Q17.633 48.6369 17.5027 52.2673Q17.4915 52.5798 17.4915 52.9014L31.9404 52.9014C31.9404 51.4403 32.3733 50.1686 33.2391 49.0863C34.105 47.9499 35.4579 46.597 37.2978 45.0276Q39.8142 42.8359 41.3565 41.1313C42.4388 39.9408 43.3587 38.5067 44.1164 36.8291C44.874 35.0974 45.2528 33.1222 45.2528 30.9035C45.2528 26.0872 43.2776 22.3532 39.3271 19.7015Q33.4827 15.6429 23.823 15.6429C18.0868 15.6429 13.1893 16.6981 9.13065 18.8086Q5.27426 20.814 2.52527 23.829Q1.14431 25.3436 0.0428061 27.113Q-0.124552 27.3818 -0.285453 27.6565L0.273669 27.9567L11.8094 34.1504C12.8917 32.3105 14.2987 30.8764 16.0304 29.8482C17.8162 28.82 19.7914 28.3059 21.956 28.3059C24.0665 28.3059 25.7712 28.793 27.07 29.767C28.4229 30.687 29.0993 31.9317 29.0993 33.501C29.0993 34.6374 28.7205 35.7197 27.9629 36.7479ZM19.5799 73.7297Q21.8048 74.9654 24.7159 74.9654Q27.8048 74.9654 30.1121 73.6224Q31.0238 73.0918 31.8134 72.3515Q33.262 70.9481 33.9586 69.2384Q34.6039 67.6546 34.6039 65.808Q34.6039 63.8503 33.9024 62.2282Q33.7954 61.9808 33.6723 61.7416Q32.9856 60.4075 31.798 59.3313Q31.1228 58.7193 30.3575 58.2561Q27.9735 56.813 24.7159 56.813Q21.4785 56.813 19.0997 58.2421Q18.3166 58.7126 17.6265 59.3381Q16.4991 60.3927 15.8394 61.686Q14.9092 63.5098 14.9092 65.808Q14.9092 67.6378 15.5444 69.2111Q16.2424 70.9397 17.7072 72.3586Q18.5733 73.1706 19.5799 73.7297ZM18.1409 71.896C19.8726 73.5195 22.0643 74.3312 24.7159 74.3312C27.4217 74.3312 29.6404 73.5195 31.3721 71.896C33.1038 70.2184 33.9697 68.1891 33.9697 65.808C33.9697 63.3728 33.1038 61.3705 31.3721 59.8012Q30.7813 59.2657 30.1148 58.852Q27.8514 57.4471 24.7159 57.4471Q21.5805 57.4471 19.317 58.852Q18.6506 59.2657 18.0597 59.8012Q17.0321 60.7625 16.4241 61.9404Q15.5433 63.6469 15.5433 65.808C15.5433 68.1891 16.4092 70.2184 18.1409 71.896Z" fill="rgb(32,32,39)" fill-rule="evenodd" transform="matrix(0.984808,0.173648,-0.174411,0.984673,120.59,69.8112)" />
	</g>
</svg>
